<svg xmlns="http://www.w3.org/2000/svg"><symbol id="icon-dribble" viewBox="0 0 14 14"><path fill-rule="evenodd" clip-rule="evenodd" d="M13.4 6.991a6.405 6.405 0 0 1-.504 2.488 6.443 6.443 0 0 1-2.318 2.811c-.342.23-.708.429-1.087.59a6.43 6.43 0 0 1-4.983 0 6.465 6.465 0 0 1-1.087-.59 6.445 6.445 0 0 1-2.318-2.81A6.37 6.37 0 0 1 .73 5.705a6.355 6.355 0 0 1 .964-2.288 6.453 6.453 0 0 1 1.728-1.725A6.337 6.337 0 0 1 5.71.73a6.45 6.45 0 0 1 3.78.372 6.423 6.423 0 0 1 3.778 4.603c.087.42.131.853.131 1.286ZM4.668 2.055a5.466 5.466 0 0 0-3.017 3.81c.144.002 2.422.03 5.046-.665a32.86 32.86 0 0 0-2.03-3.145ZM7.15 6.04c-2.814.841-5.515.78-5.612.777-.001.059-.004.116-.004.174 0 1.402.53 2.68 1.4 3.647-.001-.003 1.494-2.653 4.444-3.605.071-.024.144-.045.215-.065-.137-.31-.286-.621-.443-.928Zm3.46-3.145A5.443 5.443 0 0 0 7 1.534c-.444 0-.875.053-1.288.153.082.11 1.108 1.47 2.043 3.183 2.062-.772 2.84-1.955 2.854-1.975ZM7.965 7.872l-.036.012c-3.225 1.122-4.278 3.385-4.29 3.41a5.46 5.46 0 0 0 5.494.722 22.696 22.696 0 0 0-1.168-4.144Zm2.088 3.645a5.46 5.46 0 0 0 2.342-3.66 7.94 7.94 0 0 0-3.406-.238 23.6 23.6 0 0 1 1.064 3.898ZM8.176 5.684a17.209 17.209 0 0 1 .481 1.074c1.878-.236 3.727.16 3.806.177a5.426 5.426 0 0 0-1.242-3.41c-.01.014-.887 1.279-3.045 2.159Z"/></symbol><symbol id="icon-instagram" viewBox="0 0 14 14"><path fill-rule="evenodd" clip-rule="evenodd" d="M7 .6C5.263.6 5.045.608 4.363.64 3.68.67 3.215.778 2.808.936c-.42.164-.778.382-1.133.738a3.142 3.142 0 0 0-.74 1.134C.778 3.215.67 3.68.64 4.36.608 5.044.6 5.262.6 7.001c0 1.737.008 1.955.039 2.637.031.682.139 1.147.297 1.554.164.42.382.778.738 1.134.356.356.713.575 1.133.738.408.159.873.266 1.554.298.683.03.9.038 2.639.038 1.738 0 1.956-.007 2.638-.038.681-.032 1.147-.14 1.554-.298a3.13 3.13 0 0 0 1.133-.738c.356-.356.575-.713.739-1.134.157-.407.265-.872.297-1.553.031-.683.039-.9.039-2.639 0-1.738-.008-1.956-.039-2.639-.032-.681-.14-1.146-.297-1.553a3.141 3.141 0 0 0-.739-1.134 3.128 3.128 0 0 0-1.133-.738C10.784.778 10.319.67 9.637.64 8.955.608 8.737.6 7 .6Zm-.574 1.153h.575c1.708 0 1.91.007 2.586.037.624.029.962.133 1.188.22.299.117.512.255.736.48.224.223.362.437.478.735.088.226.192.564.22 1.188.032.675.038.878.038 2.586 0 1.708-.006 1.91-.037 2.585-.029.624-.133.963-.22 1.188a1.98 1.98 0 0 1-.48.735 1.98 1.98 0 0 1-.735.479c-.225.088-.564.192-1.188.22-.675.031-.878.038-2.586.038-1.71 0-1.912-.007-2.587-.037-.624-.03-.962-.134-1.188-.221a1.982 1.982 0 0 1-.736-.479 1.984 1.984 0 0 1-.479-.736c-.088-.225-.192-.564-.22-1.187-.031-.675-.037-.878-.037-2.587s.006-1.91.037-2.585c.028-.624.132-.963.22-1.189.116-.298.255-.512.479-.736.224-.224.437-.362.736-.479.226-.088.564-.192 1.188-.22.59-.027.82-.035 2.012-.036v.001Zm3.99 1.063a.768.768 0 1 0 0 1.536.768.768 0 0 0 0-1.536Zm-3.415.897a3.287 3.287 0 1 0 0 6.574 3.287 3.287 0 0 0 0-6.574Zm0 1.154a2.133 2.133 0 1 1 0 4.267 2.133 2.133 0 0 1 0-4.267Z"/></symbol><symbol id="icon-skate" viewBox="0 0 77 64"><path d="M72.717 23.319H30.583L12.568 5.303c-1.453-1.453-3.778-1.453-5.086 0-1.452 1.453-1.452 3.778 0 5.085l19.47 19.469v27.605a3.597 3.597 0 0 0 3.631 3.632 3.597 3.597 0 0 0 3.633-3.632V33.489H49.47c.581 0 1.162-.145 1.744-.29l4.94 4.94c.726.726 1.598 1.017 2.615 1.017.871 0 1.888-.291 2.615-1.017l7.555-7.556h3.923a3.597 3.597 0 0 0 3.632-3.632c0-2.034-1.744-3.632-3.778-3.632Zm0 5.812h-2.615c.29-.582.436-1.163.436-1.744 0-1.017-.436-1.889-1.017-2.615h3.342c1.162 0 2.179 1.017 2.179 2.18 0 1.161-1.017 2.178-2.325 2.178Zm-12.35 7.99c-.871.872-2.179.872-3.05 0l-4.65-4.649-.58-.436-2.035-2.034s-.145 0-.145-.145c-.145-.145-.436-.145-.726 0 0 0-.146 0-.146.145-.145.146-.29.436-.145.581 0 .146.145.291.145.436l1.017 1.017H34.216v-7.264H49.47c1.017 0 1.889.436 2.615 1.017 0 0 0 .145.146.145.435.581 1.017 1.162 1.598 1.744.29.29.58.58.726.871l.727.727.726.726c.29.29.581.436.727.727l1.452 1.453c.291.29.727.29 1.017 0l6.248-6.248c.436-.436 1.017-.581 1.598-.581.581 0 1.162.29 1.598.581.436.436.581 1.017.581 1.598 0 .581-.29 1.163-.58 1.599h-.291l-7.991 7.99ZM28.405 57.462v-30.51c0-1.018.727-1.89 1.744-2.18h2.615v32.69c0 1.162-1.017 2.18-2.18 2.18-1.162 0-2.179-.872-2.179-2.18ZM10.098 5.739c.58 0 1.162.145 1.598.581L29.13 23.755c-1.162.581-2.034 1.889-2.034 3.196v.872L8.5 9.516c-.871-.871-.871-2.179 0-3.05.436-.582 1.017-.727 1.599-.727Zm54.338 19.033c0 .145 0 .145 0 0l-4.359 4.359h-2.76c-1.308-1.163-2.906-2.761-4.214-4.36h11.333ZM37.848 62.547H26.225c-.436 0-.727.29-.727.727 0 .435.29.726.727.726h11.623c.436 0 .726-.29.726-.726s-.29-.727-.726-.727ZM9.516.218a.702.702 0 0 0-1.017 0L.218 8.499a.702.702 0 0 0 0 1.017c.145.146.29.146.581.146.29 0 .436 0 .581-.146l8.282-8.281c.145-.29.145-.726-.146-1.017Z"/><path d="M49.471 21.866c2.76 0 5.085-2.325 5.085-5.085s-2.18-5.085-5.085-5.085c-2.906 0-5.085 2.324-5.085 5.085 0 2.76 2.325 5.085 5.085 5.085Zm0-8.717a3.597 3.597 0 0 1 3.632 3.632 3.597 3.597 0 0 1-3.632 3.632 3.597 3.597 0 0 1-3.632-3.632 3.597 3.597 0 0 1 3.632-3.632Z"/></symbol><symbol id="icon-ski" viewBox="0 0 80 81"><path d="m0 26.14 54.812 54.81h2.532L0 23.607v2.533Zm48.842-4.523H44.14l-8.321-8.321c.723-.543 1.628-.724 2.532-.724h1.447l-.904-.904-.905-.724c-1.628 0-3.075.724-4.16 1.81l-2.533 2.532c-1.809 1.809-1.809 4.703 0 6.331L42.15 32.471l-9.588 9.588c-.904.904-1.266 1.99-1.266 3.256 0 1.266.543 2.351 1.266 3.256.905.904 1.99 1.266 3.257 1.266 1.266 0 2.351-.362 3.256-1.266l12.843-12.844c1.81-1.809 1.81-4.703 0-6.331l-5.788-5.789h4.522l-.904-.904-.905-1.086Zm1.628 9.045c1.086 1.085 1.086 2.714 0 3.799L37.627 47.304c-1.086 1.086-2.714 1.086-3.8 0-.542-.542-.723-1.266-.723-1.99 0-.723.362-1.447.724-1.99l10.31-10.13c.182-.18.182-.361.182-.723 0-.18-.181-.543-.181-.724l-10.13-10.13-1.448-1.266c-.723-.724-.904-1.99-.542-3.075.18-.362.361-.543.542-.905l1.81-1.809 16.1 16.1Z"/><path d="M30.029.271a.874.874 0 0 0-1.266 0 .874.874 0 0 0 0 1.267l10.13 10.13.904.904 9.045 9.045 6.693 6.693v-2.532L30.03.27ZM72.72 10.763c-3.436 0-6.33 2.895-6.33 6.332s2.894 6.331 6.33 6.331c3.438 0 6.332-2.894 6.332-6.331 0-3.437-2.894-6.332-6.331-6.332Zm0 10.854a4.478 4.478 0 0 1-4.522-4.522 4.478 4.478 0 0 1 4.523-4.523 4.478 4.478 0 0 1 4.522 4.523c0 2.532-2.17 4.522-4.522 4.522Z"/><path d="M64.4 29.758V17.095c0-3.437-2.895-6.332-6.332-6.332H40.34l1.809 1.81h15.919a4.478 4.478 0 0 1 4.522 4.522v12.844c0 .18.181.542.181.723l9.226 9.226c.543.543.724 1.266.724 1.99 0 .723-.362 1.628-.905 1.99-1.085.904-2.713.723-3.799-.362l-10.13-10.13c-.543-.543-.724-1.267-.724-1.99V18.542c-.18-.362-.361-.724-.904-.724s-.905.362-.905.905v2.713h-4.16l1.809 1.81h2.351v8.14c0 1.266.543 2.351 1.267 3.256l10.13 10.13c.904.904 2.17 1.447 3.437 1.447 1.085 0 1.99-.362 2.894-1.085a4.455 4.455 0 0 0 1.628-3.437c0-1.267-.542-2.352-1.266-3.256L64.4 29.758Zm-15.196 40.52c.904.905 1.99 1.267 3.256 1.267 1.266 0 2.352-.543 3.256-1.267a.874.874 0 0 0 0-1.266.874.874 0 0 0-1.266 0c-1.085 1.085-2.894 1.085-3.799 0l-38.53-38.35c-.363-.362-1.086-.362-1.267 0-.181.362-.362.905 0 1.266l38.35 38.35Z"/></symbol><symbol id="icon-snow" viewBox="0 0 69 64"><path d="M64.638 11.065H31.487c-.971 0-1.804.415-2.497.969l-5.41 5.394-5.27-5.256a3.592 3.592 0 0 0-4.578-.415c-.832.553-1.387 1.521-1.387 2.49-.139.968.277 2.074.97 2.766l7.907 7.884c1.249 1.245 3.607 1.245 4.855 0l4.716-4.703V30.43H20.39c-1.942 0-3.468 1.521-3.468 3.458v12.587l1.387-.554V34.026c0-1.106.971-2.075 2.081-2.075h15.951v4.15H23.164c-.416 0-.693.276-.693.691v7.47l1.387-.554v-6.362H36.34v1.106l1.387-.553v-9.544c0-1.107.971-2.075 2.081-2.075 1.11 0 2.08.968 2.08 2.075v7.746l.694-.277h.139l.555-.276V17.98h21.5a3.42 3.42 0 0 0 2.635-1.245c.693-.83.97-1.798.832-2.766-.277-1.66-1.803-2.905-3.606-2.905Zm1.803 4.841c-.416.415-.971.692-1.526.692H42.722c-.416 0-.694.277-.694.692v8.299a3.413 3.413 0 0 0-2.08-.692c-1.942 0-3.468 1.522-3.468 3.458v2.075h-4.16V18.396a.76.76 0 0 0-.416-.691c-.278-.139-.555 0-.694.138l-5.825 5.81c-.833.83-2.22.83-2.913 0l-7.907-7.885c-.416-.415-.693-.968-.555-1.66 0-.553.417-1.106.833-1.521.832-.553 1.942-.415 2.774.277l5.826 5.809a.672.672 0 0 0 .97 0l5.826-5.81c.416-.415.971-.553 1.526-.553h33.151c1.11 0 2.08.692 2.22 1.66-.14.83-.278 1.521-.694 1.936ZM37.035 9.682c2.635 0 4.855-2.213 4.855-4.84A4.818 4.818 0 0 0 37.035 0a4.818 4.818 0 0 0-4.855 4.841c0 2.628 2.22 4.841 4.855 4.841Zm0-8.299c1.942 0 3.468 1.522 3.468 3.458 0 1.937-1.526 3.458-3.468 3.458s-3.468-1.521-3.468-3.458c0-1.936 1.526-3.458 3.468-3.458Zm7.317 34.124-.694.276-2.913 1.245-1.11.553-1.386.554-12.484 5.117-6.936 2.767-14.98 6.224c-1.526.692-2.774 1.798-3.329 3.32a5.575 5.575 0 0 0 0 4.702c.694 1.522 1.803 2.767 3.33 3.32.831.277 1.525.415 2.357.415.832 0 1.665-.138 2.358-.415l51.322-21.163c3.19-1.244 4.716-4.979 3.329-8.16-1.248-3.182-4.994-4.703-8.184-3.32l-10.125 4.15-.555.415Zm13.177-3.458c1.942 0 3.745 1.106 4.438 3.043.555 1.245.555 2.49 0 3.734-.554 1.245-1.387 2.075-2.635 2.628L8.01 62.617c-1.248.553-2.496.553-3.745 0-1.248-.553-2.08-1.383-2.635-2.628-.555-1.245-.555-2.49 0-3.735.693-1.245 1.526-2.213 2.774-2.628l14.287-5.947 6.935-2.767 12.484-5.118 6.935-2.766 10.542-4.426c.694-.415 1.248-.553 1.942-.553Z"/></symbol><symbol id="icon-twitter" viewBox="0 0 12 10"><path fill-rule="evenodd" clip-rule="evenodd" d="m5.64 2.754.026.415-.42-.05c-1.528-.196-2.862-.857-3.995-1.967L.697.602l-.143.406c-.302.907-.11 1.864.52 2.508.336.356.26.407-.319.195-.201-.068-.377-.118-.394-.093-.059.06.143.83.302 1.136.218.423.663.839 1.15 1.084l.411.195-.486.009c-.47 0-.487.008-.437.186.168.55.831 1.136 1.57 1.39l.52.178-.453.27c-.672.39-1.46.611-2.25.628-.377.008-.688.042-.688.068 0 .085 1.024.56 1.62.745 1.788.551 3.911.314 5.506-.627 1.133-.669 2.267-2 2.795-3.288.286-.686.571-1.94.571-2.542 0-.39.025-.44.495-.906.277-.272.538-.568.588-.653.084-.16.075-.16-.353-.017-.713.254-.814.22-.461-.16.26-.272.57-.764.57-.908 0-.025-.125.017-.268.094a4.685 4.685 0 0 1-.739.288l-.453.144-.411-.28C9.233.5 8.914.33 8.746.28 8.318.161 7.663.178 7.277.313c-1.049.382-1.712 1.365-1.636 2.44Z"/></symbol><symbol id="icon-youtube" viewBox="0 0 14 10"><path fill-rule="evenodd" clip-rule="evenodd" d="M12 .875c.552.15.985.596 1.133 1.162C13.4 3.062 13.4 5.2 13.4 5.2s0 2.138-.268 3.163a1.625 1.625 0 0 1-1.131 1.163C11.003 9.8 7 9.8 7 9.8s-4.003 0-5-.274A1.625 1.625 0 0 1 .866 8.363C.6 7.34.6 5.2.6 5.2s0-2.138.267-3.163A1.623 1.623 0 0 1 2 .875C2.997.6 7 .6 7 .6s4.003 0 5 .275ZM5.8 3.4v4l3.2-2-3.2-2Z"/></symbol></svg>